<svg width="200" height="200" viewBox="0 0 200 200" xmlns="http://www.w3.org/2000/svg">
  <!-- Background -->
  <rect width="200" height="200" fill="#121421" rx="20"/>
  
  <!-- First R (left) -->
  <g fill="#ffffff">
    <path d="M40 60 L40 160 L55 160 L55 120 L80 120 L80 105 L55 105 L55 75 L85 75 Q95 75 95 85 L95 95 Q95 105 85 105 L75 105 L95 125 L95 160 L110 160 L110 125 L90 105 Q100 100 100 85 L100 75 Q100 60 85 60 Z"/>
  </g>
  
  <!-- Second R (right) -->
  <g fill="#ffffff">
    <path d="M120 60 L120 160 L135 160 L135 120 L160 120 L160 105 L135 105 L135 75 L165 75 Q175 75 175 85 L175 95 Q175 105 165 105 L155 105 L175 125 L175 160 L190 160 L190 125 L170 105 Q180 100 180 85 L180 75 Q180 60 165 60 Z"/>
  </g>
</svg>
