<svg width="200" height="200" viewBox="0 0 200 200" xmlns="http://www.w3.org/2000/svg">
  <!-- Background -->
  <rect width="200" height="200" fill="#121421" rx="20"/>
  
  <!-- First R (left) -->
  <g fill="#ffffff">
    <path d="M50 70 L50 150 L62 150 L62 120 L80 120 L80 108 L62 108 L62 82 L85 82 Q92 82 92 89 L92 97 Q92 104 85 104 L78 104 L92 118 L92 150 L104 150 L104 118 L90 104 Q98 100 98 89 L98 81 Q98 70 85 70 Z"/>
  </g>
  
  <!-- Second R (right) -->
  <g fill="#ffffff">
    <path d="M116 70 L116 150 L128 150 L128 120 L146 120 L146 108 L128 108 L128 82 L151 82 Q158 82 158 89 L158 97 Q158 104 151 104 L144 104 L158 118 L158 150 L170 150 L170 118 L156 104 Q164 100 164 89 L164 81 Q164 70 151 70 Z"/>
  </g>
</svg>
