<svg xmlns="http://www.w3.org/2000/svg" width="512" height="512" viewBox="0 0 512 512" version="1.1">
	<path d="M 233 60.413 C 203.479 65.653, 178.129 78.826, 158.428 99.166 C 139.907 118.289, 129.527 137.726, 123.960 163.711 C 121.008 177.492, 120.194 204.193, 122.351 216.500 C 125.556 234.789, 132.845 251.258, 144.127 265.704 C 147.905 270.542, 153.088 277.200, 155.645 280.500 C 158.202 283.800, 162.043 290.197, 164.179 294.716 C 169.958 306.937, 172.005 316.148, 172.687 333 C 173.328 348.845, 173.695 350.098, 180.265 358.903 C 183.452 363.175, 184.422 365.471, 184.898 369.864 C 185.474 375.182, 185.643 375.451, 188.801 376.095 C 190.616 376.465, 192.304 376.971, 192.552 377.218 C 192.799 377.466, 193.505 381.231, 194.120 385.584 C 195.080 392.380, 195.007 394.054, 193.601 397.416 C 192.048 401.129, 192.061 401.440, 193.857 403.416 C 199.998 410.176, 199.109 419.063, 191.363 428.327 C 188.533 431.712, 188.403 435.119, 190.900 440.500 C 196.419 452.393, 204.424 458.397, 214.980 458.561 C 218.566 458.616, 222.056 458.738, 222.736 458.831 C 223.415 458.924, 225.283 461.587, 226.885 464.750 C 232.403 475.636, 239.236 479.327, 254 479.394 C 262.235 479.432, 264.265 479.083, 269.244 476.777 C 275.846 473.719, 279.225 470.438, 282.585 463.821 C 283.893 461.247, 285.478 458.823, 286.108 458.433 C 286.738 458.044, 290.390 457.805, 294.223 457.901 C 300.067 458.049, 301.889 457.669, 305.502 455.552 C 312.644 451.366, 319.023 441.776, 318.983 435.282 C 318.974 433.752, 317.631 430.250, 316 427.500 C 312.366 421.374, 312.281 419.360, 315.515 415.984 L 318.030 413.359 314.015 410.132 C 308.695 405.857, 308.681 402.945, 313.957 397.926 L 317.915 394.161 315.828 391.509 C 314.045 389.242, 313.838 388.035, 314.404 383.216 C 315.095 377.341, 316.043 376.041, 319.656 376.015 C 321.497 376.002, 321.916 375.233, 322.523 370.750 C 323.110 366.417, 324.009 364.668, 327.669 360.737 C 330.108 358.118, 333.201 353.618, 334.542 350.737 C 336.758 345.979, 336.982 344.221, 336.997 331.500 C 337.026 307.115, 342.328 292.119, 356.797 275.494 C 366.314 264.559, 369.542 259.886, 374.750 249.500 C 383.098 232.855, 386.530 217.182, 386.356 196.500 C 385.811 131.894, 344.698 78.499, 283 62.271 C 275.146 60.205, 270.640 59.712, 257 59.427 C 246.196 59.201, 237.911 59.542, 233 60.413 M 242.678 85.075 C 215.484 88.007, 187.001 103.974, 170.836 125.349 C 158.483 141.683, 152.097 159.688, 151.276 180.500 C 150.407 202.493, 155.434 218.265, 169.488 237.645 C 173.581 243.288, 178.258 250.289, 179.881 253.203 C 187.386 266.674, 194.003 294.178, 196.444 322.053 C 197.719 336.607, 198.186 338.935, 200.957 344.564 C 204.343 351.443, 212.241 359.455, 218.658 362.521 C 220.771 363.530, 224.863 364.557, 227.750 364.802 L 233 365.248 232.956 359.874 C 232.867 348.830, 231.925 346.676, 223.215 337.604 C 210.730 324.600, 209.495 321.135, 211.145 303.757 C 212.364 290.912, 211.355 278.334, 208.413 269.699 C 207.541 267.140, 203.744 260.283, 199.975 254.461 C 189.947 238.971, 188.490 234.007, 188.543 215.500 C 188.582 201.742, 188.816 199.838, 191.366 192.500 C 195.486 180.648, 199.427 174.403, 208.418 165.478 C 221.305 152.686, 235.095 147, 253.234 147 C 269.712 147, 283.237 151.757, 295.298 161.794 C 311.169 175.003, 320.334 195.195, 320.355 217 C 320.370 233.016, 317.168 242.775, 307.668 255.669 C 297.913 268.910, 296.434 274.618, 297.507 294.889 C 298.786 319.041, 298.659 321.954, 296.104 327 C 294.851 329.475, 290.199 334.957, 285.767 339.182 L 277.708 346.864 277.223 354.422 C 276.654 363.297, 277.565 365.003, 282.872 364.994 C 289.502 364.984, 294.134 362.987, 299.671 357.750 C 308.052 349.823, 310.837 343.140, 312.081 327.969 C 313.959 305.063, 319.892 274.381, 325.175 260.262 C 326.344 257.137, 330.526 249.837, 334.467 244.040 C 344.382 229.458, 346.493 225.626, 349.389 216.961 C 353.077 205.924, 354.402 193.099, 353.027 181.750 C 350.228 158.650, 343.748 142.881, 329.883 125.434 C 326.559 121.250, 324.084 117.583, 324.382 117.284 C 325.201 116.466, 337.132 128.797, 341.038 134.500 C 342.922 137.250, 345.924 142.200, 347.709 145.500 C 351.515 152.536, 352.091 150.524, 348.558 142.536 C 332.729 106.744, 284.494 80.566, 242.678 85.075 M 239.634 156.586 C 224.909 160.151, 210.436 172.231, 203.125 187.058 C 197.666 198.128, 195.640 207.819, 196.342 219.500 C 197.074 231.704, 199.837 239.093, 208.482 251.973 C 214.247 260.562, 216.130 264.342, 217.773 270.623 C 220.778 282.106, 221.328 290.597, 219.964 304.465 C 218.761 316.698, 218.770 316.818, 221.250 322.235 C 223.119 326.317, 225.251 328.846, 229.731 332.293 C 233.022 334.825, 236.284 338.271, 236.979 339.949 C 238.377 343.323, 241.526 344.077, 242.416 341.250 C 243.282 338.498, 241.444 330.104, 238.418 323 C 235.786 316.821, 235.614 315.437, 234.930 295 C 234.063 269.100, 232.238 259.077, 224.536 237.922 C 218.242 220.631, 216.629 213.656, 217.533 207.630 C 218.374 202.022, 221.384 197, 223.904 197 C 229.040 197, 230.403 199.421, 227 202.500 C 225.450 203.902, 225.003 205.570, 225.012 209.905 C 225.026 216.432, 225.967 219.967, 233.428 241.500 C 240.763 262.672, 242.998 275.821, 243.006 297.849 C 243.012 315.715, 243.790 320.482, 247.383 324.659 C 249.287 326.873, 250.472 327.310, 254.409 327.250 C 259.464 327.174, 262.195 325.480, 264.484 321.002 C 265.366 319.277, 265.921 311.204, 266.273 295 C 266.949 263.906, 268.600 255.124, 279.387 225.269 C 283.391 214.189, 282.666 202.981, 277.848 201.452 C 275.462 200.694, 275.496 199.340, 277.934 198.035 C 283.215 195.209, 287.041 197.613, 289.018 205 C 290.837 211.797, 289.594 219.198, 284.135 234.062 C 276.040 256.104, 274.823 263.319, 274.112 293.500 L 273.500 319.500 270.250 325.235 C 267.681 329.768, 267 332.113, 267 336.426 C 267 339.427, 267.389 342.123, 267.865 342.417 C 268.341 342.711, 270.544 341.275, 272.760 339.226 C 274.976 337.177, 279.051 333.582, 281.817 331.238 C 289.767 324.497, 290.618 321.189, 288.988 303.367 C 286.831 279.780, 289.386 266.884, 298.900 253.336 C 309.242 238.610, 312.527 228.397, 311.712 213.500 C 310.473 190.866, 297.824 170.220, 279.603 161.093 C 267.623 155.092, 252.741 153.414, 239.634 156.586 M 242.500 347.057 C 247.550 348.102, 265.681 348.063, 269 347 C 270.463 346.532, 264.653 346.206, 255 346.215 C 243.703 346.225, 239.761 346.491, 242.500 347.057 M 250.750 368.750 C 211.411 368.922, 190 369.365, 190 370.008 C 190 371.091, 313.617 371.468, 316.418 370.393 C 319.172 369.336, 318.128 367.990, 314.750 368.242 C 312.962 368.375, 284.163 368.604, 250.750 368.750 M 211.024 377.987 C 207.836 378.769, 204 382.072, 204 384.034 C 204 384.481, 205.165 386.231, 206.589 387.923 L 209.178 391 252.883 391 L 296.588 391 302.044 387.747 C 306.646 385.003, 307.549 383.986, 307.813 381.247 L 308.127 378 264.188 378 C 240.022 378, 218.956 377.805, 217.375 377.567 C 215.794 377.329, 212.936 377.518, 211.024 377.987 M 299.500 400.068 C 297.850 400.561, 286.825 401.665, 275 402.522 C 263.175 403.379, 245.850 404.732, 236.500 405.528 C 227.150 406.323, 218.713 406.980, 217.750 406.987 C 216.787 406.994, 216 407.407, 216 407.905 C 216 408.403, 218.588 408.617, 221.750 408.380 C 224.912 408.144, 242.575 406.827, 261 405.455 C 282.360 403.864, 296.403 402.374, 299.750 401.343 C 304.809 399.785, 306.366 398.906, 303.750 399.086 C 303.063 399.133, 301.150 399.575, 299.500 400.068 M 271.500 420.048 C 258.300 421.045, 240.514 422.568, 231.976 423.431 C 223.438 424.294, 215.874 425, 215.167 425 C 214.460 425, 214.187 425.493, 214.559 426.096 C 214.973 426.766, 216.843 426.967, 219.368 426.614 C 221.641 426.297, 241.050 424.655, 262.500 422.967 C 283.950 421.278, 302.625 419.505, 304 419.027 C 307.846 417.690, 299.038 417.966, 271.500 420.048 M 289.813 434 L 284.994 439 245.556 439 C 223.865 439, 205.877 439.390, 205.583 439.866 C 205.288 440.343, 205.984 441.580, 207.129 442.616 C 209.104 444.404, 211.560 444.500, 255.182 444.500 L 301.154 444.500 304.577 440.765 C 306.460 438.710, 308 436.140, 308 435.054 C 308 431.646, 304.122 429, 299.128 429 C 295.043 429, 294.193 429.456, 289.813 434" stroke="none" fill="black" fill-rule="evenodd"/>
</svg>